<?xml version="1.0" standalone="no"?>
<!DOCTYPE svg PUBLIC "-//W3C//DTD SVG 20010904//EN"
 "http://www.w3.org/TR/2001/REC-SVG-20010904/DTD/svg10.dtd">
<svg version="1.0" xmlns="http://www.w3.org/2000/svg"
 width="277.000000pt" height="277.000000pt" viewBox="0 0 277.000000 277.000000"
 preserveAspectRatio="xMidYMid meet">
<metadata>
Created by potrace 1.11, written by Peter Selinger 2001-2013
</metadata>
<g transform="translate(0.000000,277.000000) scale(0.100000,-0.100000)"
fill="#000000" stroke="none">
<path d="M1317 2744 c-2 -2 -116 -9 -292 -20 -77 -4 -264 -21 -335 -29 -123
-15 -210 -54 -254 -113 -20 -27 -23 -42 -21 -109 1 -43 7 -114 14 -158 17
-111 13 -133 -44 -211 -54 -73 -85 -134 -85 -168 0 -27 14 -46 79 -115 28 -29
51 -57 51 -61 0 -4 12 -12 26 -18 33 -16 74 -106 81 -180 7 -72 7 -114 -2
-227 -23 -305 -19 -873 8 -937 29 -68 125 -94 195 -52 46 28 52 47 52 168 0
95 10 113 49 88 14 -9 28 -19 31 -23 17 -20 133 -60 202 -69 46 -7 86 -14 90
-16 5 -3 8 -26 7 -52 -1 -26 2 -87 5 -136 7 -92 22 -131 83 -213 36 -47 105
-62 323 -67 113 -3 130 -1 177 20 53 23 102 66 104 90 2 16 5 31 10 42 2 4 3
88 4 187 l0 180 45 22 c25 12 68 30 95 39 28 10 67 28 88 42 42 28 55 23 63
-24 16 -88 38 -138 80 -180 40 -41 47 -44 97 -44 89 0 94 9 97 192 8 569 3
784 -21 870 -6 24 -12 48 -14 53 -14 62 -35 109 -76 166 -52 74 -45 141 24
204 46 42 64 88 73 185 4 40 0 52 -38 109 -69 103 -67 94 -61 212 6 115 -8
219 -34 245 -8 7 -33 18 -56 24 -23 6 -72 20 -108 31 -37 11 -70 19 -75 18 -8
-2 -76 4 -184 16 -87 10 -546 25 -553 19z"/>
</g>
</svg>
